<svg id="레이어_2" data-name="레이어 2" xmlns="http://www.w3.org/2000/svg" viewBox="0 0 224.11 212.28"><defs><style>.cls-1{fill:#b6a7d8;}.cls-1,.cls-2,.cls-3{stroke:#a76eab;}.cls-1,.cls-2,.cls-3,.cls-5{stroke-miterlimit:10;}.cls-1,.cls-3{stroke-width:0.25px;}.cls-2{fill:#e7dcef;stroke-width:10px;}.cls-3{fill:#8f6ec4;}.cls-4{fill:#fff;}.cls-5{fill:none;stroke:#fff;stroke-linecap:round;stroke-width:8px;}</style></defs><title>돋보기기기기기기긱2</title><g id="레이어_2-2" data-name="레이어 2"><polygon class="cls-1" points="117.79 117.92 127.52 107.85 184.64 163 184.64 181.7 117.79 117.92"/><circle class="cls-2" cx="73" cy="73" r="68"/><path class="cls-3" d="M266.42,235.17l-4.6,4.8a14.19,14.19,0,0,1-20,.4l-54.63-51.93a14.19,14.19,0,0,1-.4-20l4.6-4.8a14.19,14.19,0,0,1,20-.4L266,215.17A14.18,14.18,0,0,1,266.42,235.17Z" transform="translate(-46.37 -32.14)"/><circle class="cls-4" cx="117.6" cy="92.8" r="4.6"/><path class="cls-5" d="M113.87,55.34a55.47,55.47,0,0,1,10.44,1A56.39,56.39,0,0,1,133.56,59a49.89,49.89,0,0,1,10.31,5.12,46.75,46.75,0,0,1,7.67,6.29,49.84,49.84,0,0,1,5.93,7.51,50.58,50.58,0,0,1,3.69,6.74,51.24,51.24,0,0,1,2.78,7.67,55.09,55.09,0,0,1,1.74,10.25,58.68,58.68,0,0,1,.09,7.51" transform="translate(-46.37 -32.14)"/></g></svg>